#Arrow_outer.obj

v 0.4969131 0.7814703 0.25
v -0.525775 0.7344739 0.25
v 0.4969131 0.7814703 0
v -0.525775 0.7344739 0
v -0.525775 0.7344739 0.25
v -0.3486127 0.1676358 0.25
v -0.525775 0.7344739 0
v -0.3486127 0.1676358 0
v -0.3486127 0.1676358 0.25
v -0.3225102 -0.244783 0.25
v -0.3486127 0.1676358 0
v -0.3225102 -0.244783 0
v -0.3225102 -0.244783 0.25
v -0.5249842 -0.3366803 0.25
v -0.3225102 -0.244783 0
v -0.5249842 -0.3366803 0
v -0.5249842 -0.3366803 0.25
v 0.03248304 -1.027856 0.25
v -0.5249842 -0.3366803 0
v 0.03248304 -1.027856 0
v 0.03248304 -1.027856 0.25
v 0.5325035 -0.2689459 0.25
v 0.03248304 -1.027856 0
v 0.5325035 -0.2689459 0
v 0.5325035 -0.2689459 0.25
v 0.2983925 -0.2156637 0.25
v 0.5325035 -0.2689459 0
v 0.2983925 -0.2156637 0
v 0.2983925 -0.2156637 0.25
v 0.3037582 0.1817691 0.25
v 0.2983925 -0.2156637 0
v 0.3037582 0.1817691 0
v 0.3037582 0.1817691 0.25
v 0.4969131 0.7814703 0.25
v 0.3037582 0.1817691 0
v 0.4969131 0.7814703 0
v 0.386977 0.6974511 0
v -0.525775 0.7344739 0
v -0.4199668 0.6603689 0
v -0.3486127 0.1676358 0
v -0.2704863 0.1821 0
v -0.3225102 -0.244783 0
v -0.2403458 -0.2941197 0
v -0.5249842 -0.3366803 0
v -0.3996504 -0.3664236 0
v 0.03248304 -1.027856 0
v 0.026055 -0.8942348 0
v 0.5325035 -0.2689459 0
v 0.4040028 -0.3206012 0
v 0.2983925 -0.2156637 0
v 0.2186541 -0.2784171 0
v 0.3037582 0.1817691 0
v 0.2250413 0.1946782 0
v 0.4969131 0.7814703 0
v -0.4199668 0.6603689 0.25
v 0.4969131 0.7814703 0.25
v 0.3869771 0.6974511 0.25
v 0.3037582 0.1817691 0.25
v 0.2250413 0.1946782 0.25
v 0.2983925 -0.2156637 0.25
v 0.2186541 -0.2784171 0.25
v 0.5325035 -0.2689459 0.25
v 0.4040028 -0.3206012 0.25
v 0.03248304 -1.027856 0.25
v 0.02605499 -0.8942348 0.25
v -0.5249842 -0.3366803 0.25
v -0.3996504 -0.3664236 0.25
v -0.3225102 -0.244783 0.25
v -0.2403458 -0.2941197 0.25
v -0.3486127 0.1676358 0.25
v -0.2704863 0.1821 0.25
v -0.525775 0.7344739 0.25

vn -0.04590541 0.9989458 0
vn -0.04590541 0.9989458 0
vn -0.04590541 0.9989458 0
vn -0.04590541 0.9989458 0
vn -0.9544678 -0.2983141 0
vn -0.9544678 -0.298314 0
vn -0.9544678 -0.298314 0
vn -0.9544678 -0.2983141 0
vn -0.9980031 -0.06316472 0
vn -0.9980031 -0.06316472 0
vn -0.9980031 -0.06316472 0
vn -0.9980031 -0.06316472 0
vn -0.4132946 0.9105973 0
vn -0.4132946 0.9105974 0
vn -0.4132946 0.9105974 0
vn -0.4132946 0.9105973 0
vn -0.7783762 -0.6277983 0
vn -0.7783761 -0.6277983 0
vn -0.7783761 -0.6277983 0
vn -0.7783762 -0.6277983 0
vn 0.8350444 -0.5501825 0
vn 0.8350444 -0.5501825 0
vn 0.8350444 -0.5501825 0
vn 0.8350444 -0.5501825 0
vn 0.2219185 0.9750652 0
vn 0.2219185 0.9750652 0
vn 0.2219185 0.9750652 0
vn 0.2219185 0.9750652 0
vn 0.9999089 -0.0134998 0
vn 0.9999089 -0.0134998 0
vn 0.9999089 -0.0134998 0
vn 0.9999089 -0.0134998 0
vn 0.9518463 -0.3065756 0
vn 0.9518463 -0.3065756 0
vn 0.9518463 -0.3065756 0
vn 0.9518463 -0.3065756 0
vn 0 0 -1
vn 0 0 -1
vn 0 0 -1
vn 0 0 -1
vn 0 0 -1
vn 0 0 -1
vn 0 0 -1
vn 0 0 -1
vn 0 0 -1
vn 0 0 -1
vn 0 0 -1
vn 0 0 -1
vn 0 0 -1
vn 0 0 -1
vn 0 0 -1
vn 0 0 -1
vn 0 0 -1
vn 0 0 -1
vn 0 0 1
vn 0 0 1
vn 0 0 1
vn 0 0 1
vn 0 0 1
vn 0 0 1
vn 0 0 1
vn 0 0 1
vn 0 0 1
vn 0 0 1
vn 0 0 1
vn 0 0 1
vn 0 0 1
vn 0 0 1
vn 0 0 1
vn 0 0 1
vn 0 0 1
vn 0 0 1

vt 0.1717024 0.4475955
vt 0.1257506 0.4461588
vt 0.1717024 0.4475955
vt 0.1257506 0.4461588
vt 0.1257506 0.4461588
vt 0.1337109 0.4288297
vt 0.1257506 0.4461588
vt 0.1337109 0.4288297
vt 0.1337109 0.4288297
vt 0.1348837 0.4162215
vt 0.1337109 0.4288297
vt 0.1348837 0.4162215
vt 0.1348837 0.4162215
vt 0.1257861 0.4134121
vt 0.1348837 0.4162215
vt 0.1257861 0.4134121
vt 0.1257861 0.4134121
vt 0.1508344 0.3922818
vt 0.1257861 0.4134121
vt 0.1508344 0.3922818
vt 0.1508344 0.3922818
vt 0.1733015 0.4154828
vt 0.1508344 0.3922818
vt 0.1733015 0.4154828
vt 0.1733015 0.4154828
vt 0.1627824 0.4171117
vt 0.1733015 0.4154828
vt 0.1627824 0.4171117
vt 0.1627824 0.4171117
vt 0.1630235 0.4292618
vt 0.1627824 0.4171117
vt 0.1630235 0.4292618
vt 0.1630235 0.4292618
vt 0.1717024 0.4475955
vt 0.1630235 0.4292618
vt 0.1717024 0.4475955
vt 0.1667627 0.445027
vt 0.1257506 0.4461588
vt 0.1305048 0.4438933
vt 0.1337109 0.4288297
vt 0.1372213 0.4292719
vt 0.1348837 0.4162215
vt 0.1385756 0.4147132
vt 0.1257861 0.4134121
vt 0.1314176 0.4125028
vt 0.1508344 0.3922818
vt 0.1505456 0.3963668
vt 0.1733015 0.4154828
vt 0.1675277 0.4139036
vt 0.1627824 0.4171117
vt 0.1591995 0.4151933
vt 0.1630235 0.4292618
vt 0.1594865 0.4296565
vt 0.1717024 0.4475955
vt 0.1305048 0.4438933
vt 0.1717024 0.4475955
vt 0.1667627 0.445027
vt 0.1630235 0.4292618
vt 0.1594865 0.4296565
vt 0.1627824 0.4171117
vt 0.1591995 0.4151933
vt 0.1733015 0.4154828
vt 0.1675277 0.4139036
vt 0.1508344 0.3922818
vt 0.1505456 0.3963668
vt 0.1257861 0.4134121
vt 0.1314176 0.4125028
vt 0.1348837 0.4162215
vt 0.1385756 0.4147132
vt 0.1337109 0.4288297
vt 0.1372213 0.4292719
vt 0.1257506 0.4461588

g Arrow_outer
usemtl Arrow_outer
usemap Arrow_outer
f 1/1/1 3/3/3 2/2/2
f 2/2/2 3/3/3 4/4/4
f 5/5/5 7/7/7 6/6/6
f 6/6/6 7/7/7 8/8/8
f 9/9/9 11/11/11 10/10/10
f 10/10/10 11/11/11 12/12/12
f 13/13/13 15/15/15 14/14/14
f 14/14/14 15/15/15 16/16/16
f 17/17/17 19/19/19 18/18/18
f 18/18/18 19/19/19 20/20/20
f 21/21/21 23/23/23 22/22/22
f 22/22/22 23/23/23 24/24/24
f 25/25/25 27/27/27 26/26/26
f 26/26/26 27/27/27 28/28/28
f 29/29/29 31/31/31 30/30/30
f 30/30/30 31/31/31 32/32/32
f 33/33/33 35/35/35 34/34/34
f 34/34/34 35/35/35 36/36/36
f 37/37/37 39/39/39 38/38/38
f 38/38/38 39/39/39 40/40/40
f 39/39/39 41/41/41 40/40/40
f 40/40/40 41/41/41 42/42/42
f 41/41/41 43/43/43 42/42/42
f 42/42/42 43/43/43 44/44/44
f 43/43/43 45/45/45 44/44/44
f 44/44/44 45/45/45 46/46/46
f 45/45/45 47/47/47 46/46/46
f 46/46/46 47/47/47 48/48/48
f 47/47/47 49/49/49 48/48/48
f 48/48/48 49/49/49 50/50/50
f 49/49/49 51/51/51 50/50/50
f 50/50/50 51/51/51 52/52/52
f 51/51/51 53/53/53 52/52/52
f 52/52/52 53/53/53 54/54/54
f 53/53/53 37/37/37 54/54/54
f 54/54/54 37/37/37 38/38/38
f 55/55/55 57/57/57 56/56/56
f 56/56/56 57/57/57 58/58/58
f 57/57/57 59/59/59 58/58/58
f 58/58/58 59/59/59 60/60/60
f 59/59/59 61/61/61 60/60/60
f 60/60/60 61/61/61 62/62/62
f 61/61/61 63/63/63 62/62/62
f 62/62/62 63/63/63 64/64/64
f 63/63/63 65/65/65 64/64/64
f 64/64/64 65/65/65 66/66/66
f 65/65/65 67/67/67 66/66/66
f 66/66/66 67/67/67 68/68/68
f 67/67/67 69/69/69 68/68/68
f 68/68/68 69/69/69 70/70/70
f 69/69/69 71/71/71 70/70/70
f 70/70/70 71/71/71 72/72/72
f 71/71/71 55/55/55 72/72/72
f 72/72/72 55/55/55 56/56/56
