#Tgt_Rtcl_Lwe_outr03.obj

v -0.2666692 -0.5 0
v -0.5 -0.5 0
v 7.629394E-08 -1.335144E-07 0
v -0.4999999 4.768371E-09 0
v 0.5000001 0.2689825 0
v 1.955032E-07 0.4999999 0
v 0.5000002 0.4999998 0

vn 0 0 1
vn 0 0 1
vn 0 0 1
vn 0 0 1
vn 0 0 1
vn 0 0 1
vn 0 0 1

vt 0.2333309 -5.960464E-08
vt 8.940697E-08 -5.960464E-08
vt 0.5000001 0.4999999
vt 1.788139E-07 0.5
vt 1 0.7689825
vt 0.5000002 0.9999999
vt 1 0.9999998

g Tgt_Rtcl_Lwe_outr03
usemtl Tgt_Rtcl_Lwe_outr03
usemap Tgt_Rtcl_Lwe_outr03
f 1/1/1 3/3/3 2/2/2
f 2/2/2 3/3/3 4/4/4
f 3/3/3 5/5/5 4/4/4
f 4/4/4 5/5/5 6/6/6
f 5/5/5 7/7/7 6/6/6
