#Upper_Ring00.obj

v -0.2666691 -0.5 0
v -0.4999999 -0.5 0
v -3.814697E-08 5.722046E-08 0
v -0.5 -4.29154E-08 0
v 0.4999999 0.2689829 0
v -1.573563E-07 0.5000001 0
v 0.4999999 0.5000002 0

vn 0 0 1
vn 0 0 1
vn 0 0 1
vn 0 0 1
vn 0 0 1
vn 0 0 1
vn 0 0 1

vt 0.2333309 1.192093E-07
vt 2.980232E-08 8.940697E-08
vt 0.5 0.5000001
vt -5.960464E-08 0.5
vt 0.9999999 0.7689828
vt 0.4999999 1
vt 0.9999999 1

g Upper_Ring00
usemtl Upper_Ring00
usemap Upper_Ring00
f 1/1/1 3/3/3 2/2/2
f 2/2/2 3/3/3 4/4/4
f 3/3/3 5/5/5 4/4/4
f 4/4/4 5/5/5 6/6/6
f 5/5/5 7/7/7 6/6/6
