#Upper_Ring02.obj

v -0.2666697 -0.4999996 0
v -0.5000005 -0.4999995 0
v -2.670288E-07 2.861023E-07 0
v -0.5000002 5.435944E-07 0
v 0.4999999 0.2689828 0
v -2.861023E-08 0.5000003 0
v 0.4999999 0.5000001 0

vn 0 0 1
vn 0 0 1
vn 0 0 1
vn 0 0 1
vn 0 0 1
vn 0 0 1
vn 0 0 1

vt 0.2333305 3.576279E-07
vt -2.384186E-07 4.470348E-07
vt 0.4999997 0.5000003
vt -5.960464E-08 0.5000005
vt 0.9999996 0.7689828
vt 0.5 1
vt 0.9999998 1

g Upper_Ring02
usemtl Upper_Ring02
usemap Upper_Ring02
f 1/1/1 3/3/3 2/2/2
f 2/2/2 3/3/3 4/4/4
f 3/3/3 5/5/5 4/4/4
f 4/4/4 5/5/5 6/6/6
f 5/5/5 7/7/7 6/6/6
