#active_base.obj

v 0.5149735 0.3966366 0
v -0.4938463 0.3966366 0
v 0.7177523 0.6003991 0
v -0.6939311 0.6003991 0
v -0.4938463 -0.4045785 0
v 0.5149735 -0.4045785 0
v -0.6939311 -0.6048974 0
v 0.7177523 -0.6048974 0
v 0.5149735 -0.4045785 0
v 0.5149735 0.3966366 0
v 0.7177523 -0.6048974 0
v 0.7177523 0.6003991 0
v -0.4938463 0.3966366 0
v -0.4938463 -0.4045785 0
v -0.6939311 0.6003991 0
v -0.6939311 -0.6048974 0

vn 0 0 1
vn 0 0 1
vn 0 0 1
vn 0 0 1
vn 0 0 1
vn 0 0 1
vn 0 0 1
vn 0 0 1
vn 0 0 1
vn 0 0 1
vn 0 0 1
vn 0 0 1
vn 0 0 1
vn 0 0 1
vn 0 0 1
vn 0 0 1

vt 0.0004996061 0.3090856
vt 0.9995005 0.3090837
vt 0.0004995167 0.01752299
vt 0.9995004 0.01752108
vt 0.0004996061 0.3090852
vt 0.9995005 0.3090838
vt 0.0004995465 0.01752275
vt 0.9995004 0.01752132
vt 0.0004995465 0.3090852
vt 0.9995006 0.3090838
vt 0.0004994273 0.01752275
vt 0.9995005 0.01752132
vt 0.0004994869 0.3090852
vt 0.9995005 0.3090848
vt 0.0004994869 0.0175218
vt 0.9995005 0.01752132

g active_base
usemtl active_base
usemap active_base
f 1/1/1 3/3/3 2/2/2
f 2/2/2 3/3/3 4/4/4
f 5/5/5 7/7/7 6/6/6
f 6/6/6 7/7/7 8/8/8
f 9/9/9 11/11/11 10/10/10
f 10/10/10 11/11/11 12/12/12
f 13/13/13 15/15/15 14/14/14
f 14/14/14 15/15/15 16/16/16
