#active_base.obj

v 0.5473644 0 0
v 0.4740314 0.2736822 0
v 0.7508048 -1.684376E-08 0
v 0.650216 0.3754025 0
v 0.4740314 0.2736822 0
v 0.2736821 0.4740314 0
v 0.650216 0.3754025 0
v 0.3754025 0.6502161 0
v 0.2736821 0.4740314 0
v -2.392606E-08 0.5473644 0
v 0.3754025 0.6502161 0
v 6.834073E-08 0.7508048 0
v -2.392606E-08 0.5473644 0
v -0.2736822 0.4740314 0
v 6.834073E-08 0.7508048 0
v -0.3754025 0.650216 0
v -0.2736822 0.4740314 0
v -0.4740314 0.2736822 0
v -0.3754025 0.650216 0
v -0.650216 0.3754024 0
v -0.4740314 0.2736822 0
v -0.5473644 8.264972E-08 0
v -0.650216 0.3754024 0
v -0.7508048 1.166706E-07 0
v -0.5473644 8.264972E-08 0
v -0.4740315 -0.2736821 0
v -0.7508048 1.166706E-07 0
v -0.6502161 -0.3754022 0
v -0.4740315 -0.2736821 0
v -0.2736823 -0.4740313 0
v -0.6502161 -0.3754022 0
v -0.3754027 -0.650216 0
v -0.2736823 -0.4740313 0
v -2.544764E-07 -0.5473644 0
v -0.3754027 -0.650216 0
v -2.74982E-07 -0.750805 0
v -2.544764E-07 -0.5473644 0
v 0.2736819 -0.4740316 0
v -2.74982E-07 -0.750805 0
v 0.3754021 -0.6502163 0
v 0.2736819 -0.4740316 0
v 0.4740312 -0.2736825 0
v 0.3754021 -0.6502163 0
v 0.6502159 -0.3754029 0
v 0.4740312 -0.2736825 0
v 0.5473644 0 0
v 0.6502159 -0.3754029 0
v 0.7508048 -1.684376E-08 0

vn 0 0 1
vn 0 0 1
vn 0 0 1
vn 0 0 1
vn 0 0 1
vn 0 0 1
vn 0 0 1
vn 0 0 1
vn 0 0 1
vn 0 0 1
vn 0 0 1
vn 0 0 1
vn 0 0 1
vn 0 0 1
vn 0 0 1
vn 0 0 1
vn 0 0 1
vn 0 0 1
vn 0 0 1
vn 0 0 1
vn 0 0 1
vn 0 0 1
vn 0 0 1
vn 0 0 1
vn 0 0 1
vn 0 0 1
vn 0 0 1
vn 0 0 1
vn 0 0 1
vn 0 0 1
vn 0 0 1
vn 0 0 1
vn 0 0 1
vn 0 0 1
vn 0 0 1
vn 0 0 1
vn 0 0 1
vn 0 0 1
vn 0 0 1
vn 0 0 1
vn 0 0 1
vn 0 0 1
vn 0 0 1
vn 0 0 1
vn 0 0 1
vn 0 0 1
vn 0 0 1
vn 0 0 1

vt 1 0.309
vt 0 0.309
vt 1 0.0175
vt 0 0.0175
vt 1 0.309
vt 0 0.309
vt 1 0.0175
vt 0 0.0175
vt 1 0.309
vt 0 0.309
vt 1 0.0175
vt 0 0.0175
vt 1 0.309
vt 0 0.309
vt 1 0.0175
vt 0 0.0175
vt 1 0.309
vt 0 0.309
vt 1 0.0175
vt 0 0.0175
vt 1 0.309
vt 0 0.309
vt 1 0.0175
vt 0 0.0175
vt 1 0.309
vt 0 0.309
vt 1 0.0175
vt 0 0.0175
vt 1 0.309
vt 0 0.309
vt 1 0.0175
vt 0 0.0175
vt 1 0.309
vt 0 0.309
vt 1 0.0175
vt 0 0.0175
vt 1 0.309
vt 0 0.309
vt 1 0.0175
vt 0 0.0175
vt 1 0.309
vt 0 0.309
vt 1 0.0175
vt 0 0.0175
vt 1 0.309
vt 0 0.309
vt 1 0.0175
vt 0 0.0175

g active_base
usemtl active_base
usemap active_base
f 1/1/1 3/3/3 2/2/2
f 2/2/2 3/3/3 4/4/4
f 5/5/5 7/7/7 6/6/6
f 6/6/6 7/7/7 8/8/8
f 9/9/9 11/11/11 10/10/10
f 10/10/10 11/11/11 12/12/12
f 13/13/13 15/15/15 14/14/14
f 14/14/14 15/15/15 16/16/16
f 17/17/17 19/19/19 18/18/18
f 18/18/18 19/19/19 20/20/20
f 21/21/21 23/23/23 22/22/22
f 22/22/22 23/23/23 24/24/24
f 25/25/25 27/27/27 26/26/26
f 26/26/26 27/27/27 28/28/28
f 29/29/29 31/31/31 30/30/30
f 30/30/30 31/31/31 32/32/32
f 33/33/33 35/35/35 34/34/34
f 34/34/34 35/35/35 36/36/36
f 37/37/37 39/39/39 38/38/38
f 38/38/38 39/39/39 40/40/40
f 41/41/41 43/43/43 42/42/42
f 42/42/42 43/43/43 44/44/44
f 45/45/45 47/47/47 46/46/46
f 46/46/46 47/47/47 48/48/48
