#active_top.obj

v 0.5149735 -0.4045785 0
v -0.4938463 -0.4045785 0
v 0.5149735 -0.4045785 1.000306
v -0.4938463 -0.4045785 1.000306
v 0.5149735 0.3966366 0
v 0.5149735 -0.4045785 0
v 0.5149735 0.3966366 1.000306
v 0.5149735 -0.4045785 1.000306
v -0.4938463 0.3966366 0
v 0.5149735 0.3966366 0
v -0.4938463 0.3966366 1.000306
v 0.5149735 0.3966366 1.000306
v -0.4938463 -0.4045785 0
v -0.4938463 0.3966366 0
v -0.4938463 -0.4045785 1.000306
v -0.4938463 0.3966366 1.000306

vn 0 -1 0
vn 0 -1 0
vn 0 -1 0
vn 0 -1 0
vn 1 0 0
vn 1 0 0
vn 1 0 0
vn 1 0 0
vn 0 1 0
vn 0 1 0
vn 0 1 0
vn 0 1 0
vn -1 0 0
vn -1 0 0
vn -1 0 0
vn -1 0 0

vt 0.9995003 0.2773421
vt 0.0004996359 0.2773422
vt 0.9995005 0.9922051
vt 0.0004998744 0.9922052
vt 0.9995002 0.2773421
vt 0.0004996061 0.2773423
vt 0.9995005 0.9922052
vt 0.0004999638 0.9922053
vt 0.0004993975 0.2773422
vt 0.9995 0.2773421
vt 0.0004996061 0.9922052
vt 0.9995003 0.9922051
vt 0.0004994869 0.2773422
vt 0.9995001 0.277342
vt 0.0004998446 0.9922052
vt 0.9995005 0.9922051

g active_top
usemtl active_top
usemap active_top
f 1/1/1 3/3/3 2/2/2
f 2/2/2 3/3/3 4/4/4
f 5/5/5 7/7/7 6/6/6
f 6/6/6 7/7/7 8/8/8
f 9/9/9 11/11/11 10/10/10
f 10/10/10 11/11/11 12/12/12
f 13/13/13 15/15/15 14/14/14
f 14/14/14 15/15/15 16/16/16
