#hotspotMesh.obj

v 1.414214 1.414214 0
v 2 0 0
v 1.414214 1.414214 0.09999999
v 2 0 0.09999999
v -8.742278E-08 2 0
v 1.414214 1.414214 0
v -8.742278E-08 2 0.09999999
v 1.414214 1.414214 0.09999999
v -1.414214 1.414214 0
v -8.742278E-08 2 0
v -1.414214 1.414214 0.09999999
v -8.742278E-08 2 0.09999999
v -2 -1.748456E-07 0
v -1.414214 1.414214 0
v -2 -1.748456E-07 0.09999999
v -1.414214 1.414214 0.09999999
v -1.414213 -1.414214 0
v -2 -1.748456E-07 0
v -1.414213 -1.414214 0.09999999
v -2 -1.748456E-07 0.09999999
v 2.384976E-08 -2 0
v -1.414213 -1.414214 0
v 2.384976E-08 -2 0.09999999
v -1.414213 -1.414214 0.09999999
v 1.414213 -1.414214 0
v 2.384976E-08 -2 0
v 1.414213 -1.414214 0.09999999
v 2.384976E-08 -2 0.09999999
v 2 0 0
v 1.414213 -1.414214 0
v 2 0 0.09999999
v 1.414213 -1.414214 0.09999999
v -8.742278E-08 2 0.09999999
v 1.414214 1.414214 0.09999999
v 2.384976E-08 -2 0.09999999
v 2 0 0.09999999
v 1.414213 -1.414214 0.09999999
v -1.414213 -1.414214 0.09999999
v -2 -1.748456E-07 0.09999999
v -1.414214 1.414214 0.09999999
v -8.742278E-08 2 0.09999999
v 1.414213 -1.414214 0
v 2 0 0
v 2.384976E-08 -2 0
v 1.414214 1.414214 0
v -8.742278E-08 2 0
v -8.742278E-08 2 0
v -1.414214 1.414214 0
v -2 -1.748456E-07 0
v -1.414213 -1.414214 0

vn 0.9238795 0.3826834 0
vn 0.9238795 0.3826834 0
vn 0.9238795 0.3826834 0
vn 0.9238795 0.3826834 0
vn 0.3826833 0.9238795 0
vn 0.3826833 0.9238795 0
vn 0.3826833 0.9238795 0
vn 0.3826833 0.9238795 0
vn -0.3826834 0.9238795 0
vn -0.3826834 0.9238795 0
vn -0.3826834 0.9238795 0
vn -0.3826834 0.9238795 0
vn -0.9238795 0.3826833 0
vn -0.9238795 0.3826833 0
vn -0.9238795 0.3826833 0
vn -0.9238795 0.3826833 0
vn -0.9238794 -0.3826835 0
vn -0.9238794 -0.3826835 0
vn -0.9238794 -0.3826835 0
vn -0.9238794 -0.3826835 0
vn -0.3826833 -0.9238795 0
vn -0.3826833 -0.9238795 0
vn -0.3826833 -0.9238795 0
vn -0.3826833 -0.9238795 0
vn 0.3826833 -0.9238795 0
vn 0.3826833 -0.9238795 0
vn 0.3826833 -0.9238795 0
vn 0.3826833 -0.9238795 0
vn 0.9238795 -0.3826835 0
vn 0.9238795 -0.3826835 0
vn 0.9238795 -0.3826835 0
vn 0.9238795 -0.3826835 0
vn 0 0 1
vn 0 0 1
vn 0 0 1
vn 0 0 1
vn 0 0 1
vn 0 0 1
vn 0 0 1
vn 0 0 1
vn 0 0 1
vn 0 0 -1
vn 0 0 -1
vn 0 0 -1
vn 0 0 -1
vn 0 0 -1
vn 0 0 -1
vn 0 0 -1
vn 0 0 -1
vn 0 0 -1

vt 0.875 0
vt 0.75 0
vt 0.875 1
vt 0.75 1
vt 1 0
vt 0.875 0
vt 1 1
vt 0.875 1
vt 0.125 0
vt 3.794549E-08 0
vt 0.125 1
vt 3.794549E-08 1
vt 0.25 0
vt 0.125 0
vt 0.25 1
vt 0.125 1
vt 0.3750001 0
vt 0.25 0
vt 0.3750001 1
vt 0.25 1
vt 0.5 0
vt 0.3750001 0
vt 0.5 1
vt 0.3750001 1
vt 0.625 0
vt 0.5 0
vt 0.625 1
vt 0.5 1
vt 0.75 0
vt 0.625 0
vt 0.75 1
vt 0.625 1
vt 1 1
vt 0.875 1
vt 0.5 1
vt 0.75 1
vt 0.625 1
vt 0.3750001 1
vt 0.25 1
vt 0.125 1
vt 3.794549E-08 1
vt 0.625 0
vt 0.75 0
vt 0.5 0
vt 0.875 0
vt 1 0
vt 3.794549E-08 0
vt 0.125 0
vt 0.25 0
vt 0.3750001 0

g hotspotMesh
usemtl hotspotMesh
usemap hotspotMesh
f 1/1/1 3/3/3 2/2/2
f 2/2/2 3/3/3 4/4/4
f 5/5/5 7/7/7 6/6/6
f 6/6/6 7/7/7 8/8/8
f 9/9/9 11/11/11 10/10/10
f 10/10/10 11/11/11 12/12/12
f 13/13/13 15/15/15 14/14/14
f 14/14/14 15/15/15 16/16/16
f 17/17/17 19/19/19 18/18/18
f 18/18/18 19/19/19 20/20/20
f 21/21/21 23/23/23 22/22/22
f 22/22/22 23/23/23 24/24/24
f 25/25/25 27/27/27 26/26/26
f 26/26/26 27/27/27 28/28/28
f 29/29/29 31/31/31 30/30/30
f 30/30/30 31/31/31 32/32/32
f 33/33/33 35/35/35 34/34/34
f 34/34/34 35/35/35 36/36/36
f 35/35/35 37/37/37 36/36/36
f 38/38/38 35/35/35 39/39/39
f 39/39/39 35/35/35 40/40/40
f 35/35/35 41/41/41 40/40/40
f 42/42/42 44/44/44 43/43/43
f 43/43/43 44/44/44 45/45/45
f 44/44/44 46/46/46 45/45/45
f 47/47/47 44/44/44 48/48/48
f 48/48/48 44/44/44 49/49/49
f 44/44/44 50/50/50 49/49/49
