#Sphere03.obj

v 0 6.369009E-10 -0.4643357
v -1.092785E-08 0.25 -0.4240317
v -0.125 0.2165064 -0.4240317
v -1.822238E-08 0.4168795 -0.2410191
v -0.2084398 0.3610282 -0.2410191
v -2.104139E-08 0.481371 0.06644881
v -0.2406855 0.4168794 0.06644881
v -1.895135E-08 0.4330127 0.3049946
v -0.2165064 0.375 0.2986974
v -1.079066E-08 0.2935375 0.4627265
v -0.1467688 0.2542109 0.4425923
v -8.561958E-09 0.1697469 0.4964482
v -0.08487345 0.1470051 0.4844729
v 0 7.913941E-09 0.4323165
v 0 6.369009E-10 -0.4643357
v -0.2165064 0.125 -0.4240317
v -0.3610282 0.2084397 -0.241019
v -0.4168794 0.2406855 0.06644881
v -0.375 0.2165064 0.2986974
v -0.2542109 0.1467688 0.4433779
v -0.08487345 0.1470051 0.4844729
v -0.1470051 0.08487345 0.4860739
v 0 7.913941E-09 0.4323165
v 0 6.369009E-10 -0.4643357
v -0.25 4.026095E-08 -0.4240317
v -0.4168794 6.195768E-08 -0.2410191
v -0.481371 6.895412E-08 0.06644881
v -0.4330127 6.625648E-08 0.3063692
v -0.2935375 5.713833E-08 0.4678936
v -0.1470051 0.08487345 0.4860739
v -0.1697469 3.871336E-08 0.5007993
v 0 7.913941E-09 0.4323165
v 0 6.369009E-10 -0.4643357
v -0.2165064 -0.1249999 -0.4240317
v -0.3610283 -0.2084396 -0.2410191
v -0.4168795 -0.2406854 0.06644881
v -0.3750001 -0.2165062 0.3192797
v -0.2542109 -0.1467687 0.4855854
v -0.1697469 3.871336E-08 0.5007993
v -0.1470051 -0.08487341 0.5090849
v 0 7.913941E-09 0.4323165
v 0 6.369009E-10 -0.4643357
v -0.1250001 -0.2165063 -0.4240317
v -0.2084399 -0.3610281 -0.2410191
v -0.2406856 -0.4168794 0.06644881
v -0.2165065 -0.3749999 0.3063692
v -0.1467688 -0.2542109 0.4703902
v -0.1470051 -0.08487341 0.5090849
v -0.08487349 -0.1470051 0.5058925
v 0 7.913941E-09 0.4323165
v 0 6.369009E-10 -0.4643357
v -1.162281E-07 -0.25 -0.4240317
v -1.938124E-07 -0.4168794 -0.2410191
v -2.237953E-07 -0.481371 0.06644881
v -2.011433E-07 -0.4330127 0.3030939
v -1.34535E-07 -0.2935375 0.4598896
v -0.08487349 -0.1470051 0.5058925
v -7.726256E-08 -0.1697468 0.4993539
v 0 7.913941E-09 0.4323165
v 0 6.369009E-10 -0.4643357
v 0.1249999 -0.2165064 -0.4240317
v 0.2084395 -0.3610283 -0.2410191
v 0.2406852 -0.4168796 0.06644881
v 0.2165061 -0.3750001 0.3104925
v 0.1467686 -0.254211 0.465739
v -7.726256E-08 -0.1697468 0.4993539
v 0.08487335 -0.1470051 0.4954317
v 0 7.913941E-09 0.4323165
v 0 6.369009E-10 -0.4643357
v 0.2165063 -0.1250001 -0.4240317
v 0.361028 -0.20844 -0.2410191
v 0.4168793 -0.2406857 0.06644881
v 0.3749999 -0.2165066 0.3030938
v 0.2542108 -0.1467689 0.4555737
v 0.08487335 -0.1470051 0.4954317
v 0.1470051 -0.08487352 0.4907557
v 0 7.913941E-09 0.4323165
v 0 6.369009E-10 -0.4643357
v 0.25 -1.921952E-07 -0.4240317
v 0.4168794 -3.256671E-07 -0.2410191
v 0.481371 -3.786364E-07 0.06644881
v 0.4330127 -3.364668E-07 0.2986974
v 0.2935375 -2.165434E-07 0.4451035
v 0.1470051 -0.08487352 0.4907557
v 0.1697469 -1.169882E-07 0.4892607
v 0 7.913941E-09 0.4323165
v 0 6.369009E-10 -0.4643357
v 0.2165065 0.1249998 -0.4240317
v 0.3610284 0.2084394 -0.241019
v 0.4168797 0.2406851 0.06644881
v 0.3750002 0.216506 0.3049946
v 0.2542111 0.1467685 0.4627265
v 0.1697469 -1.169882E-07 0.4892607
v 0.1470052 0.08487331 0.4967123
v 0 7.913941E-09 0.4323165
v 0 6.369009E-10 -0.4643357
v 0.1250002 0.2165062 -0.4240317
v 0.2084401 0.361028 -0.2410191
v 0.2406859 0.4168792 0.06644881
v 0.2165067 0.3749998 0.315592
v 0.146769 0.2542108 0.4772635
v 0.1470052 0.08487331 0.4967123
v 0.08487359 0.147005 0.5030524
v 0 7.913941E-09 0.4323165
v 0 6.369009E-10 -0.4643357
v -1.092785E-08 0.25 -0.4240317
v -1.822238E-08 0.4168795 -0.2410191
v -2.104139E-08 0.481371 0.06644881
v -1.895135E-08 0.4330127 0.3049946
v -1.079066E-08 0.2935375 0.4627265
v 0.08487359 0.147005 0.5030524
v -8.561958E-09 0.1697469 0.4964482
v 0 7.913941E-09 0.4323165
v 0.005369177 0.02917752 0.6229922
v 0.005369177 -0.02217063 0.6229922
v -0.02144438 0.01473712 0.4391307
v -0.02144438 -0.007730238 0.4391307
v 0.04761579 -0.03803809 0.5984957
v -0.002959394 -0.01467303 0.4284123
v 0.07372562 0.003503441 0.583356
v 0.008464951 0.003503441 0.4217879
v 0.04761578 0.04504496 0.5984957
v -0.002959394 0.02167992 0.4284123
v 0.005369177 0.02917752 0.6229922
v -0.02144438 0.01473712 0.4391307
v 0.1850099 0.05509282 0.7240926
v 0.1126015 0.03538743 0.7448943
v 0.1850099 -0.04808594 0.7240926
v 0.1126015 -0.02838056 0.7448943
v 0.1126015 0.03538743 0.7448943
v 0.1850099 0.05509282 0.7240926
v 0.2297607 0.00350344 0.7112363
v 0.1850099 -0.04808594 0.7240926
v 0.2297607 0.00350344 0.7112363
v 0.1850099 -0.04808594 0.7240926
v 0.1850099 0.05509282 0.7240926
v 0.1126015 -0.02838056 0.7448943
v 0.1126015 0.03538743 0.7448943

vn 0 0 -1
vn 1.094832E-07 0.5158321 -0.8566896
vn -0.2579161 0.4467237 -0.8566896
vn 1.786043E-07 0.8985655 -0.4388393
vn -0.4492828 0.7781805 -0.4388394
vn -0.001648079 0.9999919 -0.003674156
vn -0.5005416 0.8657115 -0.001380339
vn -0.02056548 0.9020383 0.4311658
vn -0.4571886 0.7721971 0.4412371
vn -0.06998108 0.5533831 0.8299817
vn -0.3186703 0.4794303 0.8176771
vn -0.1116777 0.0003456409 0.9937444
vn -0.08870358 0.02732057 0.9956833
vn 0.01129549 0.01997413 0.9997367
vn 0 0 -1
vn -0.4467238 0.2579161 -0.8566896
vn -0.7781805 0.4492828 -0.4388393
vn -0.8656439 0.5006579 -0.00152429
vn -0.7718239 0.4600116 0.4389499
vn -0.4758247 0.3308006 0.8149612
vn -0.08870358 0.02732057 0.9956833
vn -0.01037675 0.1119234 0.9936627
vn 0.01129549 0.01997413 0.9997367
vn 0 0 -1
vn -0.5158321 1.16E-07 -0.8566896
vn -0.8985655 1.733512E-07 -0.4388394
vn -0.9999888 0.001994988 -0.00429119
vn -0.9043018 0.02478912 0.4261735
vn -0.5550285 0.08525443 0.8274509
vn -0.01037675 0.1119234 0.9936627
vn 0.01306254 0.1368122 0.9905109
vn 0.01129549 0.01997413 0.9997367
vn 0 0 -1
vn -0.4467238 -0.257916 -0.8566896
vn -0.7781806 -0.4492826 -0.4388394
vn -0.866009 -0.4999903 -0.006190462
vn -0.7828046 -0.4508798 0.4288639
vn -0.4673371 -0.2616504 0.8444732
vn 0.01306254 0.1368122 0.9905109
vn 0.03972472 0.04626023 0.9981393
vn 0.01129549 0.01997413 0.9997367
vn 0 0 -1
vn -0.2579162 -0.4467237 -0.8566896
vn -0.4492829 -0.7781805 -0.4388394
vn -0.4986472 -0.866792 -0.004745086
vn -0.4398714 -0.7947624 0.4181698
vn -0.240661 -0.5186322 0.8204285
vn 0.03972472 0.04626023 0.9981393
vn 0.06947615 -0.02027359 0.9973775
vn 0.01129549 0.01997413 0.9997367
vn 0 0 -1
vn -2.476404E-07 -0.5158322 -0.8566896
vn -4.412575E-07 -0.8985655 -0.4388394
vn -0.000400401 -0.9999934 -0.003602092
vn -0.0004962667 -0.9056807 0.4239602
vn 0.01048414 -0.5768908 0.816754
vn 0.06947615 -0.02027359 0.9973775
vn 0.04185531 -0.01336155 0.9990343
vn 0.01129549 0.01997413 0.9997367
vn 0 0 -1
vn 0.2579158 -0.446724 -0.8566896
vn 0.4492823 -0.7781808 -0.4388394
vn 0.4999956 -0.8660191 -0.003922045
vn 0.4506847 -0.7774499 0.4386969
vn 0.2835349 -0.4674697 0.8373052
vn 0.04185531 -0.01336155 0.9990343
vn 0.03017223 0.01743859 0.9993926
vn 0.01129549 0.01997413 0.9997367
vn 0 0 -1
vn 0.4467236 -0.2579164 -0.8566896
vn 0.7781802 -0.4492833 -0.4388394
vn 0.8666018 -0.4989924 -0.002803905
vn 0.7855676 -0.4382595 0.4368205
vn 0.5032879 -0.2451358 0.8286191
vn 0.03017223 0.01743859 0.9993926
vn 0.04870524 0.03053525 0.9983463
vn 0.01129549 0.01997413 0.9997367
vn 0 0 -1
vn 0.5158321 -3.753708E-07 -0.8566896
vn 0.8985655 -6.881517E-07 -0.4388393
vn 0.9999983 -0.000188064 -0.001849337
vn 0.9006678 -0.003335055 0.4344953
vn 0.580946 -0.01437682 0.8138151
vn 0.04870524 0.03053525 0.9983463
vn 0.05500793 -0.03058333 0.9980174
vn 0.01129549 0.01997413 0.9997367
vn 0 0 -1
vn 0.446724 0.2579157 -0.8566896
vn 0.778181 0.4492821 -0.4388393
vn 0.8668429 0.4985677 -0.003674197
vn 0.7914221 0.4342685 0.4301882
vn 0.5150218 0.2244533 0.8272685
vn 0.05500793 -0.03058333 0.9980174
vn 0.05041486 -0.07801219 0.9956769
vn 0.01129549 0.01997413 0.9997367
vn 0 0 -1
vn 0.2579165 0.4467236 -0.8566896
vn 0.4492834 0.7781802 -0.4388393
vn 0.4999937 0.8660131 -0.005250807
vn 0.4504152 0.7801408 0.4341735
vn 0.2667094 0.4623241 0.8456492
vn 0.05041486 -0.07801219 0.9956769
vn -0.02074335 -0.03421023 0.9991993
vn 0.01129549 0.01997413 0.9997367
vn 0 0 -1
vn 1.094832E-07 0.5158321 -0.8566896
vn 1.786043E-07 0.8985655 -0.4388393
vn -0.001648079 0.9999919 -0.003674156
vn -0.02056548 0.9020383 0.4311658
vn -0.06998108 0.5533831 0.8299817
vn -0.02074335 -0.03421023 0.9991993
vn -0.1116777 0.0003456409 0.9937444
vn 0.01129549 0.01997413 0.9997367
vn -0.7679946 0.5491589 0.3295583
vn -0.7679947 -0.5491588 0.3295583
vn -0.7923298 0.6062993 0.06793144
vn -0.7923299 -0.6062992 0.06793145
vn 0.130221 -0.9716253 -0.1974505
vn 0.3354881 -0.9146787 -0.2254122
vn 0.8023074 0 -0.5969111
vn 0.9272179 0 -0.3745223
vn 0.130221 0.9716253 -0.1974504
vn 0.335488 0.9146787 -0.2254122
vn -0.7679946 0.5491589 0.3295583
vn -0.7923298 0.6062993 0.06793144
vn 0.3055412 0.8570993 -0.4147595
vn -0.5669309 0.6750559 0.4721111
vn 0.3055413 -0.8570992 -0.4147595
vn -0.5669308 -0.6750561 0.472111
vn -0.5669309 0.6750559 0.4721111
vn 0.3055412 0.8570993 -0.4147595
vn 0.6395233 0 -0.7687717
vn 0.3055413 -0.8570992 -0.4147595
vn 0.2761157 0 0.9611244
vn 0.2761157 0 0.9611244
vn 0.2761157 0 0.9611244
vn 0.2761157 0 0.9611244
vn 0.2761157 0 0.9611244

vt 0 5.960464E-08
vt 0 0.1666667
vt 0.08333334 0.1666667
vt 0 0.3333333
vt 0.08333334 0.3333333
vt 0 0.5
vt 0.08333334 0.5
vt 0 0.6666666
vt 0.08333334 0.6666666
vt 0 0.8333333
vt 0.08333334 0.8333333
vt 0 0.9166666
vt 0.04166667 0.9166666
vt 0 1
vt 0.08333334 5.960464E-08
vt 0.1666667 0.1666667
vt 0.1666667 0.3333333
vt 0.1666667 0.5
vt 0.1666667 0.6666666
vt 0.1666667 0.8333333
vt 0.08333334 0.9166666
vt 0.125 0.9166666
vt 0.08333334 1
vt 0.1666667 5.960464E-08
vt 0.25 0.1666667
vt 0.25 0.3333333
vt 0.25 0.5
vt 0.25 0.6666666
vt 0.25 0.8333333
vt 0.1666667 0.9166666
vt 0.2083333 0.9166667
vt 0.1666667 1
vt 0.25 5.960464E-08
vt 0.3333333 0.1666667
vt 0.3333333 0.3333333
vt 0.3333333 0.5
vt 0.3333333 0.6666666
vt 0.3333333 0.8333333
vt 0.25 0.9166666
vt 0.2916667 0.9166666
vt 0.25 1
vt 0.3333333 5.960464E-08
vt 0.4166667 0.1666667
vt 0.4166667 0.3333333
vt 0.4166667 0.5
vt 0.4166667 0.6666666
vt 0.4166667 0.8333333
vt 0.3333333 0.9166666
vt 0.375 0.9166666
vt 0.3333333 1
vt 0.4166667 5.960464E-08
vt 0.5 0.1666667
vt 0.5 0.3333333
vt 0.5 0.5
vt 0.5 0.6666666
vt 0.5 0.8333333
vt 0.4166667 0.9166666
vt 0.4583333 0.9166666
vt 0.4166667 1
vt 0.5 5.960464E-08
vt 0.5833333 0.1666667
vt 0.5833333 0.3333333
vt 0.5833333 0.5
vt 0.5833333 0.6666666
vt 0.5833333 0.8333333
vt 0.5 0.9166666
vt 0.5416666 0.9166666
vt 0.5 1
vt 0.5833333 5.960464E-08
vt 0.6666666 0.1666667
vt 0.6666666 0.3333333
vt 0.6666666 0.5
vt 0.6666666 0.6666666
vt 0.6666666 0.8333333
vt 0.5833333 0.9166666
vt 0.6249999 0.9166666
vt 0.5833333 1
vt 0.6666666 5.960464E-08
vt 0.7499999 0.1666667
vt 0.7499999 0.3333333
vt 0.7499999 0.5
vt 0.7499999 0.6666666
vt 0.7499999 0.8333333
vt 0.6666666 0.9166666
vt 0.7083333 0.9166666
vt 0.6666666 1
vt 0.7499999 5.960464E-08
vt 0.8333332 0.1666667
vt 0.8333332 0.3333333
vt 0.8333332 0.5
vt 0.8333332 0.6666666
vt 0.8333332 0.8333333
vt 0.7499999 0.9166666
vt 0.7916665 0.9166666
vt 0.7499999 1
vt 0.8333332 5.960464E-08
vt 0.9166665 0.1666667
vt 0.9166665 0.3333333
vt 0.9166665 0.5
vt 0.9166665 0.6666666
vt 0.9166665 0.8333333
vt 0.8333332 0.9166666
vt 0.8749999 0.9166666
vt 0.8333332 1
vt 0.9166665 5.960464E-08
vt 0.9999998 0.1666667
vt 0.9999998 0.3333333
vt 0.9999998 0.5
vt 0.9999998 0.6666666
vt 0.9999998 0.8333333
vt 0.9166665 0.9166666
vt 0.9583331 0.9166666
vt 0.9166665 1
vt 0.15 0.5
vt 0.35 0.5
vt 0.15 0
vt 0.35 0
vt 0.55 0.5
vt 0.55 0
vt 0.75 0.5
vt 0.75 0
vt 0.95 0.5
vt 0.95 0
vt 1.15 0.5
vt 1.15 0
vt 0.95 1
vt 1.15 1
vt 0.55 1
vt 0.35 1
vt 0.15 1
vt 0.95 1
vt 0.75 1
vt 0.55 1
vt 0.5 1
vt 0.9755282 0.6545086
vt 0.02447176 0.6545085
vt 0.7938927 0.09549153
vt 0.2061074 0.0954915

g Sphere03
usemtl Sphere03
usemap Sphere03
f 1/1/1 3/3/3 2/2/2
f 2/2/2 3/3/3 4/4/4
f 3/3/3 5/5/5 4/4/4
f 4/4/4 5/5/5 6/6/6
f 5/5/5 7/7/7 6/6/6
f 6/6/6 7/7/7 8/8/8
f 7/7/7 9/9/9 8/8/8
f 8/8/8 9/9/9 10/10/10
f 9/9/9 11/11/11 10/10/10
f 10/10/10 11/11/11 12/12/12
f 11/11/11 13/13/13 12/12/12
f 12/12/12 13/13/13 14/14/14
f 15/15/15 16/16/16 3/3/3
f 3/3/3 16/16/16 5/5/5
f 16/16/16 17/17/17 5/5/5
f 5/5/5 17/17/17 7/7/7
f 17/17/17 18/18/18 7/7/7
f 7/7/7 18/18/18 9/9/9
f 18/18/18 19/19/19 9/9/9
f 9/9/9 19/19/19 11/11/11
f 19/19/19 20/20/20 11/11/11
f 11/11/11 20/20/20 21/21/21
f 20/20/20 22/22/22 21/21/21
f 21/21/21 22/22/22 23/23/23
f 24/24/24 25/25/25 16/16/16
f 16/16/16 25/25/25 17/17/17
f 25/25/25 26/26/26 17/17/17
f 17/17/17 26/26/26 18/18/18
f 26/26/26 27/27/27 18/18/18
f 18/18/18 27/27/27 19/19/19
f 27/27/27 28/28/28 19/19/19
f 19/19/19 28/28/28 20/20/20
f 28/28/28 29/29/29 20/20/20
f 20/20/20 29/29/29 30/30/30
f 29/29/29 31/31/31 30/30/30
f 30/30/30 31/31/31 32/32/32
f 33/33/33 34/34/34 25/25/25
f 25/25/25 34/34/34 26/26/26
f 34/34/34 35/35/35 26/26/26
f 26/26/26 35/35/35 27/27/27
f 35/35/35 36/36/36 27/27/27
f 27/27/27 36/36/36 28/28/28
f 36/36/36 37/37/37 28/28/28
f 28/28/28 37/37/37 29/29/29
f 37/37/37 38/38/38 29/29/29
f 29/29/29 38/38/38 39/39/39
f 38/38/38 40/40/40 39/39/39
f 39/39/39 40/40/40 41/41/41
f 42/42/42 43/43/43 34/34/34
f 34/34/34 43/43/43 35/35/35
f 43/43/43 44/44/44 35/35/35
f 35/35/35 44/44/44 36/36/36
f 44/44/44 45/45/45 36/36/36
f 36/36/36 45/45/45 37/37/37
f 45/45/45 46/46/46 37/37/37
f 37/37/37 46/46/46 38/38/38
f 46/46/46 47/47/47 38/38/38
f 38/38/38 47/47/47 48/48/48
f 47/47/47 49/49/49 48/48/48
f 48/48/48 49/49/49 50/50/50
f 51/51/51 52/52/52 43/43/43
f 43/43/43 52/52/52 44/44/44
f 52/52/52 53/53/53 44/44/44
f 44/44/44 53/53/53 45/45/45
f 53/53/53 54/54/54 45/45/45
f 45/45/45 54/54/54 46/46/46
f 54/54/54 55/55/55 46/46/46
f 46/46/46 55/55/55 47/47/47
f 55/55/55 56/56/56 47/47/47
f 47/47/47 56/56/56 57/57/57
f 56/56/56 58/58/58 57/57/57
f 57/57/57 58/58/58 59/59/59
f 60/60/60 61/61/61 52/52/52
f 52/52/52 61/61/61 53/53/53
f 61/61/61 62/62/62 53/53/53
f 53/53/53 62/62/62 54/54/54
f 62/62/62 63/63/63 54/54/54
f 54/54/54 63/63/63 55/55/55
f 63/63/63 64/64/64 55/55/55
f 55/55/55 64/64/64 56/56/56
f 64/64/64 65/65/65 56/56/56
f 56/56/56 65/65/65 66/66/66
f 65/65/65 67/67/67 66/66/66
f 66/66/66 67/67/67 68/68/68
f 69/69/69 70/70/70 61/61/61
f 61/61/61 70/70/70 62/62/62
f 70/70/70 71/71/71 62/62/62
f 62/62/62 71/71/71 63/63/63
f 71/71/71 72/72/72 63/63/63
f 63/63/63 72/72/72 64/64/64
f 72/72/72 73/73/73 64/64/64
f 64/64/64 73/73/73 65/65/65
f 73/73/73 74/74/74 65/65/65
f 65/65/65 74/74/74 75/75/75
f 74/74/74 76/76/76 75/75/75
f 75/75/75 76/76/76 77/77/77
f 78/78/78 79/79/79 70/70/70
f 70/70/70 79/79/79 71/71/71
f 79/79/79 80/80/80 71/71/71
f 71/71/71 80/80/80 72/72/72
f 80/80/80 81/81/81 72/72/72
f 72/72/72 81/81/81 73/73/73
f 81/81/81 82/82/82 73/73/73
f 73/73/73 82/82/82 74/74/74
f 82/82/82 83/83/83 74/74/74
f 74/74/74 83/83/83 84/84/84
f 83/83/83 85/85/85 84/84/84
f 84/84/84 85/85/85 86/86/86
f 87/87/87 88/88/88 79/79/79
f 79/79/79 88/88/88 80/80/80
f 88/88/88 89/89/89 80/80/80
f 80/80/80 89/89/89 81/81/81
f 89/89/89 90/90/90 81/81/81
f 81/81/81 90/90/90 82/82/82
f 90/90/90 91/91/91 82/82/82
f 82/82/82 91/91/91 83/83/83
f 91/91/91 92/92/92 83/83/83
f 83/83/83 92/92/92 93/93/93
f 92/92/92 94/94/94 93/93/93
f 93/93/93 94/94/94 95/95/95
f 96/96/96 97/97/97 88/88/88
f 88/88/88 97/97/97 89/89/89
f 97/97/97 98/98/98 89/89/89
f 89/89/89 98/98/98 90/90/90
f 98/98/98 99/99/99 90/90/90
f 90/90/90 99/99/99 91/91/91
f 99/99/99 100/100/100 91/91/91
f 91/91/91 100/100/100 92/92/92
f 100/100/100 101/101/101 92/92/92
f 92/92/92 101/101/101 102/102/102
f 101/101/101 103/103/103 102/102/102
f 102/102/102 103/103/103 104/104/104
f 105/105/105 106/106/106 97/97/97
f 97/97/97 106/106/106 98/98/98
f 106/106/106 107/107/107 98/98/98
f 98/98/98 107/107/107 99/99/99
f 107/107/107 108/108/108 99/99/99
f 99/99/99 108/108/108 100/100/100
f 108/108/108 109/109/109 100/100/100
f 100/100/100 109/109/109 101/101/101
f 109/109/109 110/110/110 101/101/101
f 101/101/101 110/110/110 111/111/111
f 110/110/110 112/112/112 111/111/111
f 111/111/111 112/112/112 113/113/113
f 114/114/114 116/116/116 115/115/115
f 116/116/116 117/117/117 115/115/115
f 115/115/115 117/117/117 118/118/118
f 117/117/117 119/119/119 118/118/118
f 118/118/118 119/119/119 120/120/120
f 119/119/119 121/121/121 120/120/120
f 120/120/120 121/121/121 122/122/122
f 121/121/121 123/123/123 122/122/122
f 122/122/122 123/123/123 124/124/124
f 123/123/123 125/125/125 124/124/124
f 126/126/126 122/122/122 127/127/127
f 127/127/127 122/122/122 124/124/124
f 118/118/118 128/128/128 115/115/115
f 128/128/128 129/129/129 115/115/115
f 115/115/115 129/129/129 114/114/114
f 129/129/129 130/130/130 114/114/114
f 122/122/122 131/131/131 120/120/120
f 131/131/131 132/132/132 120/120/120
f 120/120/120 132/132/132 118/118/118
f 132/132/132 133/133/133 118/118/118
f 134/134/134 136/136/136 135/135/135
f 135/135/135 136/136/136 137/137/137
f 136/136/136 138/138/138 137/137/137
