#Hotspot_return_path.obj

v 0 -0.5 0
v -0.5 -0.5 0
v 0 0 0
v -0.5 0 0
v 0.5 -0.5 0
v 0 -0.5 0
v 0.5 0 0
v 0 0 0
v 0 0 0
v -0.5 0 0
v 0 0.5 0
v -0.5 0.5 0
v 0.5 0 0
v 0 0 0
v 0.5 0.5 0
v 0 0.5 0

vn 0 0 1
vn 0 0 1
vn 0 0 1
vn 0 0 1
vn 0 0 1
vn 0 0 1
vn 0 0 1
vn 0 0 1
vn 0 0 1
vn 0 0 1
vn 0 0 1
vn 0 0 1
vn 0 0 1
vn 0 0 1
vn 0 0 1
vn 0 0 1

vt 0.009804199 0.009803687
vt 0.9901965 0.009804037
vt 0.009803833 0.9901959
vt 0.9901961 0.9901962
vt 0.9901961 0.009803921
vt 0.009803921 0.009803921
vt 0.9901961 0.9901961
vt 0.009803921 0.9901961
vt 0.009803775 0.9901961
vt 0.9901959 0.9901962
vt 0.009803907 0.009803921
vt 0.9901962 0.009804037
vt 0.9901962 0.9901961
vt 0.009803921 0.9901959
vt 0.9901963 0.009803921
vt 0.009804037 0.009803761

g Hotspot_return_path
usemtl Hotspot_return_path
usemap Hotspot_return_path
f 1/1/1 3/3/3 2/2/2
f 2/2/2 3/3/3 4/4/4
f 5/5/5 7/7/7 6/6/6
f 6/6/6 7/7/7 8/8/8
f 9/9/9 11/11/11 10/10/10
f 10/10/10 11/11/11 12/12/12
f 13/13/13 15/15/15 14/14/14
f 14/14/14 15/15/15 16/16/16
