#Hotspot_Directional.obj

v 0 -0.5 0
v -0.5 -0.5 0
v 0 0.5 0
v -0.5 0.5 0
v 0.5 -0.5 0
v 0 -0.5 0
v 0.5 0.5 0
v 0 0.5 0

vn 0 0 1
vn 0 0 1
vn 0 0 1
vn 0 0 1
vn 0 0 1
vn 0 0 1
vn 0 0 1
vn 0 0 1

vt 0.9901961 0.009803921
vt 0.009803921 0.009803921
vt 0.9901961 0.9901961
vt 0.009803921 0.9901961
vt 0.009803687 0.009804053
vt 0.9901959 0.009803805
vt 0.00980398 0.9901963
vt 0.9901963 0.990196

g Hotspot_Directional
usemtl Hotspot_Directional
usemap Hotspot_Directional
f 1/1/1 3/3/3 2/2/2
f 2/2/2 3/3/3 4/4/4
f 5/5/5 7/7/7 6/6/6
f 6/6/6 7/7/7 8/8/8
