#Ring_ripple_center.obj

v 0 0 0
v 0 -0.3910225 0
v -0.3965396 0 0
v -0.2740591 -0.2820021 0
v 0.4002539 0 0
v 0.2845039 -0.2698879 0
v 0 0 0
v 0 -0.3910225 0
v 0 0.3950035 0
v 0 0 0
v -0.2982866 0.2604097 0
v -0.3965396 0 0
v 0 0.3950035 0
v 0.2966166 0.2657942 0
v 0 0 0
v 0.4002539 0 0

vn 0 0 1
vn 0 0 1
vn 0 0 1
vn 0 0 1
vn 0 0 1
vn 0 0 1
vn 0 0 1
vn 0 0 1
vn 0 0 1
vn 0 0 1
vn 0 0 1
vn 0 0 1
vn 0 0 1
vn 0 0 1
vn 0 0 1
vn 0 0 1

vt 0.9959669 0.005257592
vt 0.2211876 0.005257545
vt 0.9959667 0.7919766
vt 0.4372027 0.5489802
vt 0.2028962 0.005257553
vt 0.4322454 0.5407047
vt 0.9959669 0.005257636
vt 0.9959667 0.781031
vt 0.9959667 0.7889291
vt 0.995967 0.005257666
vt 0.404936 0.5219001
vt 0.210256 0.005257489
vt 0.2132996 0.00525749
vt 0.4693171 0.5937334
vt 0.9959669 0.005257666
vt 0.9959667 0.7993458

g Ring_ripple_center
usemtl Ring_ripple_center
usemap Ring_ripple_center
f 1/1/1 3/3/3 2/2/2
f 2/2/2 3/3/3 4/4/4
f 5/5/5 7/7/7 6/6/6
f 6/6/6 7/7/7 8/8/8
f 9/9/9 11/11/11 10/10/10
f 10/10/10 11/11/11 12/12/12
f 13/13/13 15/15/15 14/14/14
f 14/14/14 15/15/15 16/16/16
